# File produced by Open Asset Import Library (http://www.assimp.sf.net)
# (assimp v5.0.1588609223)

mtllib result.mtl

# 269 vertex positions
v  38.426804 -25.010578 17.534645
v  42.174061 -25.014811 22.468588
v  42.169361 -21.889818 22.482716
v  38.423637 -22.080898 17.546564
v  42.164658 -18.764828 22.496845
v  34.09734 -25.007185 13.093871
v  38.417503 -16.416847 17.569616
v  42.159954 -15.639836 22.510981
v  34.095097 -21.882191 13.105017
v  29.250134 -25.004564 9.2146368
v  34.09285 -18.757195 13.116167
v  38.413692 -12.901231 17.583931
v  42.155247 -12.514845 22.52512
v  42.150536 -9.3898544 22.539263
v  34.090603 -15.6322 13.127322
v  29.248013 -19.926445 9.2299938
v  29.24605 -15.23895 9.2441807
v  34.088356 -12.507206 13.138481
v  38.408607 -8.2137403 17.603027
v  42.145821 -6.264863 22.55341
v  23.957064 -21.87764 5.9645834
v  23.957647 -25.002638 5.9569345
v  18.29924 -25.00132 3.3714533
v  23.95648 -18.752644 5.9722371
v  18.299122 -20.704447 3.3793902
v  12.360162 -21.875513 1.5026327
v  12.359984 -25.000513 1.4987873
v  6.2293911 -25.000111 0.36880094
v  12.360339 -18.750513 1.5064833
v  6.2296939 -20.312611 0.37165263
v  4.1363892e-05 -21.875002 0.00011758857
v  5.4042397e-05 -25.000002 0.00015358215
v  -6.2337446 -25.000071 0.39999324
v  -6.2342081 -21.875071 0.39806041
v  -12.377462 -25.000198 1.5638249
v  3.0380679e-05 -18.750002 8.6392247e-05
v  -12.378607 -21.8752 1.560063
v  -18.33773 -25.000265 3.4755549
v  -6.2349272 -16.992258 0.39504945
v  6.2300119 -15.429797 0.37463504
v  2.1091289e-05 -15.625001 5.9993956e-05
v  -12.379747 -18.7502 1.5563054
v  1.3494247e-05 -12.500001 3.8394464e-05
v  -18.341946 -18.554955 3.4642251
v  -12.380886 -15.6252 1.552552
v  -6.2355275 -12.890696 0.39252886
v  -24.026926 -21.875153 6.1006045
v  -24.023775 -25.000151 6.1077113
v  -29.348791 -24.999739 9.4218378
v  -24.030075 -18.750154 6.0935011
v  -29.35491 -20.702868 9.4100523
v  -34.237202 -21.87392 13.359186
v  -34.231281 -24.998915 13.369054
v  -38.596287 -24.997574 17.890778
v  -42.385479 -21.870626 22.90695
v  -42.376163 -24.995617 22.918709
v  -42.394794 -18.745634 22.895193
v  -34.243114 -18.748926 13.349321
v  -38.603825 -21.872581 17.879803
v  -38.611362 -18.747589 17.86883
v  -38.618893 -15.622595 17.857861
v  -42.404114 -15.620644 22.883434
v  -42.413429 -12.495652 22.871675
v  -29.361021 -16.405998 9.3982725
v  -34.249027 -15.62393 13.339458
v  -38.626415 -12.497602 17.846891
v  -34.254936 -12.498936 13.329598
v  -38.633938 -9.3726082 17.835924
v  -42.422749 -9.3706608 22.859917
v  -42.432064 -6.2456698 22.848158
v  -24.03322 -15.625157 6.086401
v  -29.36657 -12.499752 9.3875685
v  -18.346018 -12.304957 3.453254
v  -24.036362 -12.500159 6.0793047
v  -29.371004 -9.3747559 9.3790092
v  -12.382022 -12.5002 1.5488029
v  -12.383154 -9.3752012 1.5450579
v  -18.347921 -9.3752708 3.4481168
v  -24.039499 -9.3751621 6.0722117
v  -24.042633 -6.250164 6.0651221
v  -12.384284 -6.2502012 1.5413172
v  -18.349951 -6.2502723 3.4426408
v  -6.2365189 -6.0547581 0.38834533
v  -18.351974 -3.1252735 3.4371688
v  -12.385411 -3.1252017 1.5375808
v  7.5880721e-06 -9.375001 2.1594547e-05
v  -6.2369404 -3.1250706 0.38655907
v  6.2302814 -11.328235 0.37714961
v  3.3712906e-06 -6.2500005 9.5949836e-06
v  6.2305136 -7.8126097 0.3793118
v  8.4242555e-07 -3.1250002 2.396544e-06
v  6.2308383 -2.9297972 0.38232523
v  12.360873 -9.375515 1.5180653
v  1.9159128e-14 -5.2120642e-16 2.3020791e-12
v  12.361053 -6.250515 1.5219362
v  12.360695 -12.500514 1.5141996
v  18.29871 -5.8607025 3.406883
v  12.360517 -15.625514 1.5103389
v  18.29884 -10.548201 3.3981888
v  18.298992 -16.016949 3.3880599
v  23.955896 -15.627645 5.9798956
v  23.955311 -12.502647 5.9875593
v  29.244576 -11.72333 9.2548285
v  23.954725 -9.3776493 5.9952283
v  34.086105 -9.3822107 13.149646
v  29.242771 -7.4264588 9.2678509
v  34.083851 -6.257216 13.160814
v  23.954138 -6.2526517 6.002902
v  29.241295 -3.9108381 9.278512
v  23.95355 -3.1276541 6.010581
v  38.403305 -3.3309391 17.622929
v  42.141102 -3.1398718 22.56756
v  42.136383 -0.014880736 22.581715
v  34.081596 -3.132221 13.171988
v  34.079342 -0.0072260993 13.183166
v  38.396507 2.9190471 17.648418
v  42.131725 3.1101105 22.595966
v  42.127071 6.2351017 22.610229
v  29.239487 0.38603204 9.2915516
v  34.077084 3.1177688 13.194348
v  38.390339 8.5830975 17.671535
v  42.122421 9.3600931 22.624493
v  34.074821 6.2427635 13.205536
v  29.237511 5.0735269 9.3057861
v  38.386295 12.294026 17.686687
v  42.117771 12.485084 22.638756
v  42.113121 15.610075 22.653019
v  34.072559 9.3677588 13.216728
v  29.235531 9.7610216 9.3200321
v  34.070297 12.492753 13.227924
v  38.382992 15.321363 17.699053
v  34.068031 15.617748 13.239126
v  38.379684 18.3487 17.711424
v  42.108467 18.735065 22.667282
v  42.103817 21.860058 22.681545
v  29.233879 13.667267 9.331912
v  38.375843 21.864317 17.725794
v  42.099167 24.985048 22.695808
v  38.372425 24.989311 17.738571
v  34.061218 24.992733 13.272758
v  34.065762 18.742743 13.250332
v  34.063492 21.867739 13.261543
v  29.230404 21.870382 9.356884
v  29.229078 24.995378 9.3664064
v  29.23173 18.745386 9.3473673
v  23.948227 24.997326 6.0799155
v  23.949415 18.74733 6.0644727
v  23.948822 21.872328 6.0721917
v  18.297932 21.873661 3.4585578
v  18.297842 24.998661 3.4644055
v  12.36287 24.999481 1.5609224
v  23.950008 15.622333 6.0567589
v  12.362687 21.874481 1.557001
v  23.950602 12.497334 6.0490499
v  18.298107 15.623664 3.446878
v  18.298019 18.748663 3.4527154
v  12.362503 18.749481 1.5530846
v  6.2325296 21.874891 0.39782083
v  6.2327476 24.999891 0.39979526
v  5.3795069e-05 25.000002 0.00015378863
v  4.119919e-05 21.875002 0.0001177422
v  -6.2404566 21.874929 0.37147951
v  -6.2408857 24.999929 0.36961514
v  -12.395429 24.999796 1.504145
v  3.0277923e-05 18.750002 8.6503846e-05
v  6.2323132 18.749891 0.3958514
v  6.2320971 15.62489 0.39388692
v  12.362321 15.624482 1.5491734
v  2.1032745e-05 15.625001 6.0072791e-05
v  12.362138 12.499482 1.5452671
v  18.298195 12.498666 3.4410455
v  6.2318826 12.49989 0.39192742
v  18.298323 8.0064793 3.4326706
v  1.3465141e-05 12.500001 3.8448263e-05
v  6.2316689 9.3748903 0.3899729
v  12.361956 9.3744831 1.541366
v  23.951193 9.3723373 6.0413461
v  12.361774 6.2494831 1.5374699
v  23.951782 6.2473392 6.0336475
v  12.361593 3.1244836 1.5335789
v  23.952374 3.1223414 6.0259533
v  18.298492 1.9517945 3.4213989
v  23.952963 -0.0026562416 6.0182648
v  18.298613 -2.3450787 3.4134114
v  12.361413 -0.00051587255 1.5296929
v  12.361233 -3.1255155 1.525812
v  6.2311134 1.1717652 0.38486588
v  6.2314563 6.2498903 0.38802332
v  8.4253656e-07 3.1250002 2.4061312e-06
v  3.3685576e-06 6.2500005 9.6157028e-06
v  -6.237833 3.1249297 0.38276178
v  7.5765847e-06 9.375001 2.162949e-05
v  -6.2373877 -7.0449962e-05 0.38465813
v  -12.386536 -0.00020203476 1.5338488
v  -6.238276 6.2499299 0.38086998
v  -6.2387166 9.3749294 0.37898275
v  -12.388776 6.2497973 1.5263972
v  -12.387657 3.1247976 1.5301208
v  -18.356014 3.1247244 3.4262364
v  -18.353996 -0.00027449933 3.4317007
v  -24.048889 -0.00016824038 6.0509534
v  -24.045763 -3.1251662 6.0580359
v  -24.052011 3.1248295 6.0438738
v  -29.37986 -3.1247628 9.3618984
v  -29.375433 -6.2497592 9.3704519
v  -29.384281 0.00023387762 9.3533478
v  -34.266735 -6.2489452 13.309886
v  -29.388699 3.1252306 9.344799
v  -34.278519 0.0010447404 13.290183
v  -34.272629 -3.1239502 13.300034
v  -34.260838 -9.3739405 13.319741
v  -38.641453 -6.2476153 17.824961
v  -38.648964 -3.122622 17.813997
v  -42.441383 -3.1206784 22.836399
v  -42.450691 0.0043127532 22.824629
v  -38.656471 0.0023712625 17.803036
v  -38.663971 3.1273646 17.792078
v  -42.459934 3.1293042 22.812763
v  -42.469173 6.2542953 22.8009
v  -34.284401 3.1260397 13.280334
v  -38.671471 6.252358 17.78112
v  -34.290283 6.2510347 13.27049
v  -38.678963 9.3773508 17.770164
v  -42.478409 9.3792868 22.789038
v  -42.487637 12.504278 22.777178
v  -29.393112 6.250227 9.3362541
v  -38.686447 12.502344 17.759211
v  -24.05513 6.2498274 6.0367985
v  -29.39752 9.3752241 9.3277121
v  -34.296158 9.37603 13.260647
v  -34.302029 12.501025 13.250806
v  -18.35803 6.2497234 3.4207759
v  -18.360041 9.3747225 3.4153192
v  -24.058245 9.3748255 6.029726
v  -24.061356 12.499824 6.0226569
v  -12.389892 9.3747969 1.5226779
v  -12.391005 12.499797 1.5189627
v  -18.362049 12.499722 3.4098666
v  -29.401926 12.50022 9.3191738
v  -18.364054 15.62472 3.4044178
v  -29.406326 15.625216 9.3106375
v  -24.064463 15.624822 6.0155916
v  -6.2391548 12.499929 0.37710008
v  -6.2395911 15.624929 0.375222
v  -12.392115 15.624796 1.5152519
v  -6.240025 18.749929 0.37334847
v  -12.393222 18.749796 1.5115453
v  -12.394327 21.874796 1.507843
v  -18.366056 18.74972 3.398973
v  -18.368053 21.874718 3.393532
v  -18.370049 24.999718 3.3880949
v  -24.073761 24.999815 5.9944162
v  -24.067566 18.749819 6.0085297
v  -24.070665 21.874817 6.001471
v  -29.415115 21.87521 9.2935743
v  -29.419504 25.000206 9.2850475
v  -34.325466 25.001005 13.211468
v  -29.410723 18.750214 9.302104
v  -34.313759 18.751015 13.231132
v  -34.319614 21.876011 13.221298
v  -38.708881 21.877325 17.72636
v  -38.716351 25.002317 17.715416
v  -42.524506 25.004244 22.729748
v  -42.515297 21.879251 22.741602
v  -42.506081 18.754261 22.75346
v  -38.701408 18.752331 17.737309
v  -38.693932 15.627337 17.748259
v  -42.496864 15.62927 22.765318
v  -34.307896 15.62602 13.240968

# 0 UV coordinates

# 31 vertex normals
vn -0.75646853 0 0.65403008
vn -0.83446461 0 0.55106151
vn -0.67070669 0 0.7417227
vn -0.57451826 0 0.81849176
vn -0.47222143 0 0.88147998
vn -0.36055428 0 0.93273824
vn -0.24439016 0 0.96967709
vn -0.11821289 0 0.99298829
vn 0 0 1
vn 0.12597254 0 0.99203372
vn 0.24439016 0 0.96967709
vn 0.3632082 0 0.93170798
vn 0.47222143 0 0.88147998
vn 0.58347362 0 0.81213212
vn 0.57975507 0 0.81479084
vn 0.67501348 0 0.73780549
vn 0.76368493 0 0.64558929
vn 0.83446461 0 0.55106151
vn 0.75980926 0 0.65014607
vn 0.75646853 0 0.65403008
vn 0.57451826 0 0.81849176
vn -0.12597254 0 0.99203372
vn -0.3632082 0 0.93170798
vn -0.67501348 0 0.73780549
vn -0.75980926 0 0.65014607
vn -0.76368493 0 0.64558929
vn -0.57975507 0 0.81479084
vn -0.58347362 0 0.81213212
vn 0.11821289 0 0.99298829
vn 0.67070669 0 0.7417227
vn 0.36055428 0 0.93273824

# Mesh 'meshes_0' with 472 faces
g meshes_0
usemtl WorldGridMaterial
f  1//1 2//2 3//2
f  4//1 1//1 3//2
f  4//1 3//2 5//2
f  4//1 6//3 1//1
f  5//2 7//1 4//1
f  7//1 5//2 8//2
f  9//3 6//3 4//1
f  10//4 6//3 9//3
f  7//1 11//3 4//1
f  4//1 11//3 9//3
f  8//2 12//1 7//1
f  12//1 8//2 13//2
f  12//1 13//2 14//2
f  11//3 7//1 15//3
f  12//1 15//3 7//1
f  16//4 9//3 11//3
f  9//3 16//4 10//4
f  17//4 11//3 15//3
f  11//3 17//4 16//4
f  12//1 18//3 15//3
f  15//3 18//3 17//4
f  19//1 12//1 14//2
f  12//1 19//1 18//3
f  14//2 20//2 19//1
f  21//5 10//4 16//4
f  10//4 21//5 22//5
f  23//6 22//5 21//5
f  16//4 24//5 21//5
f  17//4 24//5 16//4
f  23//6 21//5 25//6
f  25//6 21//5 24//5
f  26//7 23//6 25//6
f  23//6 26//7 27//7
f  28//8 27//7 26//7
f  25//6 29//7 26//7
f  26//7 30//8 28//8
f  30//8 26//7 29//7
f  28//8 30//8 31//9
f  31//9 32//9 28//8
f  33//10 32//9 31//9
f  33//10 31//9 34//10
f  35//11 33//10 34//10
f  30//8 36//9 31//9
f  34//10 31//9 36//9
f  37//11 35//11 34//10
f  38//12 35//11 37//11
f  39//10 34//10 36//9
f  34//10 39//10 37//11
f  36//9 30//8 40//8
f  30//8 29//7 40//8
f  39//10 36//9 41//9
f  40//8 41//9 36//9
f  39//10 42//11 37//11
f  40//8 43//9 41//9
f  44//12 37//11 42//11
f  38//12 37//11 44//12
f  42//11 39//10 45//11
f  44//12 42//11 45//11
f  41//9 46//10 39//10
f  46//10 45//11 39//10
f  46//10 41//9 43//9
f  47//13 38//12 44//12
f  38//12 47//13 48//13
f  49//14 48//13 47//13
f  44//12 50//13 47//13
f  49//14 47//13 51//15
f  51//15 47//13 50//13
f  52//16 49//14 51//15
f  49//14 52//16 53//16
f  54//17 53//16 52//16
f  55//18 56//18 54//17
f  54//17 57//18 55//18
f  51//15 58//16 52//16
f  52//16 58//16 54//17
f  57//18 54//17 59//17
f  59//17 54//17 58//16
f  59//17 60//17 57//18
f  59//17 58//16 60//17
f  61//19 57//18 60//17
f  60//17 58//16 61//19
f  62//18 57//18 61//19
f  61//19 63//18 62//18
f  64//15 58//16 51//15
f  50//13 64//15 51//15
f  61//19 58//16 65//16
f  64//15 65//16 58//16
f  63//18 61//19 66//19
f  65//16 67//16 61//19
f  66//19 61//19 67//16
f  65//16 64//15 67//16
f  68//20 63//18 66//19
f  66//19 67//16 68//20
f  69//18 63//18 68//20
f  70//18 69//18 68//20
f  64//15 50//13 71//13
f  44//12 71//13 50//13
f  71//13 72//21 64//15
f  67//16 64//15 72//21
f  71//13 44//12 73//12
f  45//11 73//12 44//12
f  72//21 71//13 74//13
f  74//13 71//13 73//12
f  75//21 67//16 72//21
f  72//21 74//13 75//21
f  73//12 45//11 76//11
f  76//11 45//11 46//10
f  73//12 76//11 77//11
f  46//10 77//11 76//11
f  78//12 74//13 73//12
f  73//12 77//11 78//12
f  78//12 79//13 74//13
f  75//21 74//13 79//13
f  79//13 78//12 80//13
f  79//13 80//13 75//21
f  81//11 78//12 77//11
f  82//12 80//13 78//12
f  81//11 82//12 78//12
f  77//11 46//10 83//10
f  77//11 83//10 81//11
f  84//12 82//12 81//11
f  82//12 84//12 80//13
f  83//10 85//11 81//11
f  84//12 81//11 85//11
f  46//10 86//9 83//10
f  46//10 43//9 86//9
f  85//11 83//10 87//10
f  86//9 43//9 88//8
f  43//9 40//8 88//8
f  83//10 86//9 89//9
f  88//8 90//22 86//9
f  90//22 89//9 86//9
f  83//10 89//9 91//9
f  83//10 91//9 87//10
f  89//9 90//22 92//22
f  91//9 89//9 92//22
f  93//7 90//22 88//8
f  91//9 94//9 87//10
f  92//22 94//9 91//9
f  90//22 93//7 95//7
f  90//22 95//7 92//22
f  88//8 96//7 93//7
f  40//8 96//7 88//8
f  97//23 95//7 93//7
f  40//8 98//7 96//7
f  29//7 98//7 40//8
f  99//23 93//7 96//7
f  97//23 93//7 99//23
f  100//6 96//7 98//7
f  100//6 98//7 29//7
f  96//7 100//6 99//23
f  25//6 100//6 29//7
f  24//5 100//6 25//6
f  100//6 24//5 101//5
f  17//4 101//5 24//5
f  100//6 101//5 102//5
f  17//4 102//5 101//5
f  100//6 102//5 99//23
f  102//5 17//4 103//4
f  17//4 18//3 103//4
f  104//5 99//23 102//5
f  103//4 104//5 102//5
f  104//5 97//23 99//23
f  105//3 103//4 18//3
f  19//1 105//3 18//3
f  104//5 103//4 106//4
f  105//3 106//4 103//4
f  19//1 107//3 105//3
f  106//4 105//3 107//3
f  106//4 108//5 104//5
f  97//23 104//5 108//5
f  109//4 108//5 106//4
f  107//3 109//4 106//4
f  97//23 108//5 110//5
f  110//5 108//5 109//4
f  111//1 107//3 19//1
f  20//2 111//1 19//1
f  111//1 20//2 112//2
f  111//1 112//2 113//2
f  109//4 107//3 114//24
f  111//1 114//24 107//3
f  109//4 114//24 115//24
f  111//1 115//24 114//24
f  113//2 116//1 111//1
f  116//1 115//24 111//1
f  116//1 113//2 117//2
f  116//1 117//2 118//2
f  119//4 109//4 115//24
f  109//4 119//4 110//5
f  120//24 115//24 116//1
f  119//4 115//24 120//24
f  118//2 121//1 116//1
f  121//1 118//2 122//2
f  116//1 123//24 120//24
f  121//1 123//24 116//1
f  120//24 124//4 119//4
f  124//4 120//24 123//24
f  122//2 125//25 121//1
f  125//25 122//2 126//2
f  125//25 126//2 127//2
f  123//24 121//1 128//24
f  125//25 128//24 121//1
f  129//4 123//24 128//24
f  123//24 129//4 124//4
f  130//24 128//24 125//25
f  129//4 128//24 130//24
f  131//25 125//25 127//2
f  130//24 125//25 132//24
f  131//25 132//24 125//25
f  127//2 133//26 131//25
f  133//26 132//24 131//25
f  133//26 127//2 134//2
f  133//26 134//2 135//2
f  136//4 130//24 132//24
f  129//4 130//24 136//4
f  137//26 133//26 135//2
f  135//2 138//2 137//26
f  137//26 138//2 139//26
f  139//26 140//24 137//26
f  133//26 137//26 141//24
f  133//26 141//24 132//24
f  137//26 140//24 142//24
f  142//24 141//24 137//26
f  143//27 142//24 140//24
f  142//24 143//27 141//24
f  140//24 144//28 143//27
f  145//27 132//24 141//24
f  145//27 141//24 143//27
f  132//24 145//27 136//4
f  144//28 146//5 143//27
f  143//27 147//5 145//27
f  147//5 136//4 145//27
f  143//27 146//5 148//5
f  148//5 147//5 143//27
f  149//23 148//5 146//5
f  148//5 149//23 147//5
f  149//23 146//5 150//23
f  150//23 151//7 149//23
f  136//4 147//5 152//5
f  149//23 151//7 153//7
f  152//5 154//5 136//4
f  154//5 129//4 136//4
f  155//23 152//5 147//5
f  152//5 155//23 154//5
f  156//23 147//5 149//23
f  156//23 155//23 147//5
f  157//7 156//23 149//23
f  156//23 157//7 155//23
f  153//7 157//7 149//23
f  158//22 153//7 151//7
f  153//7 158//22 157//7
f  151//7 159//22 158//22
f  159//22 160//9 158//22
f  158//22 160//9 161//9
f  162//29 161//9 160//9
f  162//29 160//9 163//29
f  163//29 164//11 162//29
f  161//9 165//9 158//22
f  161//9 162//29 165//9
f  166//22 157//7 158//22
f  158//22 165//9 166//22
f  166//22 167//22 157//7
f  167//22 166//22 165//9
f  168//7 157//7 167//22
f  168//7 155//23 157//7
f  165//9 169//9 167//22
f  170//7 155//23 168//7
f  167//22 170//7 168//7
f  155//23 170//7 171//23
f  171//23 154//5 155//23
f  172//22 170//7 167//22
f  171//23 173//23 154//5
f  170//7 173//23 171//23
f  167//22 174//9 172//22
f  169//9 174//9 167//22
f  172//22 175//22 170//7
f  174//9 175//22 172//22
f  176//7 173//23 170//7
f  176//7 170//7 175//22
f  177//5 154//5 173//23
f  129//4 154//5 177//5
f  173//23 176//7 178//7
f  175//22 178//7 176//7
f  129//4 177//5 179//5
f  173//23 179//5 177//5
f  129//4 179//5 124//4
f  173//23 178//7 180//7
f  124//4 179//5 181//5
f  181//5 119//4 124//4
f  182//23 179//5 173//23
f  182//23 181//5 179//5
f  173//23 180//7 182//23
f  119//4 181//5 183//5
f  182//23 183//5 181//5
f  183//5 110//5 119//4
f  184//23 110//5 183//5
f  184//23 183//5 182//23
f  97//23 110//5 184//23
f  185//7 184//23 182//23
f  182//23 180//7 185//7
f  186//7 97//23 184//23
f  184//23 185//7 186//7
f  97//23 186//7 95//7
f  92//22 95//7 186//7
f  92//22 186//7 185//7
f  92//22 185//7 187//22
f  187//22 185//7 180//7
f  94//9 92//22 187//22
f  188//22 180//7 178//7
f  180//7 188//22 187//22
f  188//22 178//7 175//22
f  189//9 94//9 187//22
f  190//9 187//22 188//22
f  187//22 190//9 189//9
f  175//22 190//9 188//22
f  189//9 191//10 94//9
f  191//10 189//9 190//9
f  192//9 190//9 175//22
f  175//22 174//9 192//9
f  193//10 94//9 191//10
f  193//10 87//10 94//9
f  194//11 87//10 193//10
f  191//10 194//11 193//10
f  85//11 87//10 194//11
f  85//11 194//11 84//12
f  195//10 191//10 190//9
f  192//9 196//29 190//9
f  195//10 190//9 196//29
f  196//29 192//9 174//9
f  195//10 197//11 191//10
f  197//11 195//10 196//29
f  194//11 191//10 198//11
f  198//11 191//10 197//11
f  199//12 194//11 198//11
f  198//11 197//11 199//12
f  200//12 84//12 194//11
f  200//12 194//11 199//12
f  201//13 84//12 200//12
f  199//12 201//13 200//12
f  202//13 84//12 201//13
f  80//13 84//12 202//13
f  201//13 199//12 203//13
f  204//21 80//13 202//13
f  202//13 201//13 204//21
f  80//13 204//21 205//21
f  205//21 75//21 80//13
f  206//21 204//21 201//13
f  205//21 207//16 75//21
f  205//21 204//21 207//16
f  206//21 201//13 208//21
f  208//21 201//13 203//13
f  204//21 206//21 209//16
f  209//16 206//21 208//21
f  210//16 207//16 204//21
f  210//16 204//21 209//16
f  211//16 75//21 207//16
f  67//16 75//21 211//16
f  68//20 67//16 211//16
f  211//16 207//16 68//20
f  212//20 68//20 207//16
f  68//20 212//20 70//18
f  213//20 207//16 210//16
f  212//20 207//16 213//20
f  213//20 70//18 212//20
f  210//16 209//16 213//20
f  214//18 70//18 213//20
f  213//20 215//18 214//18
f  215//18 213//20 216//20
f  216//20 213//20 209//16
f  217//20 215//18 216//20
f  216//20 209//16 217//20
f  218//18 215//18 217//20
f  219//18 218//18 217//20
f  217//20 209//16 220//16
f  208//21 220//16 209//16
f  217//20 221//20 219//18
f  220//16 222//30 217//20
f  221//20 217//20 222//30
f  220//16 208//21 222//30
f  223//20 219//18 221//20
f  221//20 222//30 223//20
f  224//18 219//18 223//20
f  223//20 225//18 224//18
f  226//21 222//30 208//21
f  223//20 227//20 225//18
f  208//21 228//13 226//21
f  203//13 228//13 208//21
f  203//13 199//12 228//13
f  226//21 229//21 222//30
f  228//13 229//21 226//21
f  222//30 230//30 223//20
f  230//30 222//30 229//21
f  230//30 231//30 223//20
f  230//30 229//21 231//30
f  227//20 223//20 231//30
f  232//12 228//13 199//12
f  199//12 197//11 232//12
f  232//12 233//12 228//13
f  233//12 232//12 197//11
f  229//21 228//13 234//13
f  228//13 233//12 234//13
f  234//13 235//13 229//21
f  234//13 233//12 235//13
f  233//12 197//11 236//11
f  236//11 197//11 196//29
f  236//11 237//11 233//12
f  236//11 196//29 237//11
f  238//12 235//13 233//12
f  238//12 233//12 237//11
f  239//21 229//21 235//13
f  229//21 239//21 231//30
f  235//13 238//12 240//12
f  238//12 237//11 240//12
f  239//21 235//13 241//21
f  241//21 231//30 239//21
f  242//13 235//13 240//12
f  242//13 241//21 235//13
f  196//29 243//29 237//11
f  243//29 196//29 174//9
f  243//29 174//9 244//29
f  237//11 243//29 244//29
f  169//9 244//29 174//9
f  165//9 244//29 169//9
f  244//29 245//11 237//11
f  240//12 237//11 245//11
f  246//29 244//29 165//9
f  246//29 165//9 162//29
f  245//11 244//29 247//11
f  244//29 246//29 247//11
f  245//11 247//11 240//12
f  247//11 246//29 162//29
f  248//11 247//11 162//29
f  248//11 162//29 164//11
f  249//31 240//12 247//11
f  164//11 250//31 248//11
f  248//11 250//31 247//11
f  249//31 247//11 250//31
f  250//31 164//11 251//31
f  251//31 252//13 250//31
f  240//12 249//31 253//13
f  249//31 250//31 253//13
f  253//13 242//13 240//12
f  241//21 242//13 253//13
f  250//31 252//13 254//13
f  254//13 253//13 250//31
f  255//21 254//13 252//13
f  254//13 255//21 253//13
f  255//21 252//13 256//21
f  256//21 257//30 255//21
f  258//21 241//21 253//13
f  258//21 253//13 255//21
f  258//21 259//30 241//21
f  259//30 258//21 255//21
f  255//21 257//30 260//30
f  260//30 259//30 255//21
f  261//20 260//30 257//30
f  260//30 261//20 259//30
f  257//30 262//20 261//20
f  262//20 263//18 261//20
f  261//20 263//18 264//18
f  264//18 265//18 261//20
f  261//20 265//18 266//20
f  266//20 259//30 261//20
f  267//20 266//20 265//18
f  266//20 267//20 259//30
f  265//18 268//18 267//20
f  268//18 225//18 267//20
f  267//20 225//18 227//20
f  227//20 231//30 267//20
f  269//30 259//30 267//20
f  267//20 231//30 269//30
f  269//30 241//21 259//30
f  231//30 241//21 269//30

